<?xml version="1.0" standalone="no"?>
<!DOCTYPE svg PUBLIC "-//W3C//DTD SVG 20010904//EN"
 "http://www.w3.org/TR/2001/REC-SVG-20010904/DTD/svg10.dtd">
<svg version="1.0" xmlns="http://www.w3.org/2000/svg"
 width="107.000000pt" height="110.000000pt" viewBox="0 0 107.000000 110.000000"
 preserveAspectRatio="xMidYMid meet">
<metadata>
Created by potrace 1.10, written by Peter Selinger 2001-2011
</metadata>
<g transform="translate(0.000000,110.000000) scale(0.100000,-0.100000)"
fill="#000000" stroke="none">
<path d="M870 1059 c0 -6 -7 -9 -15 -5 -8 3 -15 2 -15 -2 0 -4 -13 -21 -30
-38 -16 -18 -26 -35 -23 -38 4 -3 1 -6 -6 -6 -8 0 -11 -7 -7 -15 3 -8 1 -15
-5 -15 -5 0 -9 -6 -8 -12 1 -7 -3 -26 -10 -42 -6 -16 -19 -83 -28 -151 l-17
-122 -161 -6 c-89 -3 -168 -9 -177 -12 -14 -5 -17 5 -23 62 -10 100 -42 255
-64 306 -10 24 -33 55 -51 69 -27 21 -38 24 -67 18 -19 -5 -43 -16 -53 -25
-19 -18 -61 -99 -65 -125 -1 -8 -5 -23 -9 -33 -5 -9 -5 -28 -2 -42 4 -14 2
-25 -4 -25 -13 0 -12 -373 2 -535 5 -66 11 -148 11 -182 2 -54 5 -63 20 -63
16 0 17 6 12 42 -10 77 -25 390 -25 538 1 300 37 424 125 424 68 0 101 -66
130 -261 31 -201 27 -188 60 -187 17 1 103 5 193 10 89 4 165 10 167 14 2 4 9
49 16 101 6 52 15 99 21 106 5 7 7 17 3 23 -4 6 -2 17 4 24 7 8 11 18 10 22
-1 5 3 22 9 37 7 16 12 31 12 35 0 4 11 24 25 45 34 49 77 51 122 7 38 -37 51
-87 64 -243 10 -112 -1 -516 -18 -679 -4 -39 -2 -58 5 -58 14 0 20 50 32 270
18 339 9 563 -26 664 -17 48 -60 96 -86 96 -10 0 -18 5 -18 10 0 6 -7 10 -15
10 -8 0 -15 -5 -15 -11z"/>
<path d="M663 443 c-7 -2 -13 -17 -13 -33 0 -21 10 -36 38 -58 60 -47 81 -56
108 -43 32 14 30 33 -8 77 -42 47 -93 71 -125 57z m73 -44 c30 -18 54 -46 54
-63 0 -28 -109 38 -110 67 0 23 15 22 56 -4z"/>
<path d="M334 387 c-55 -42 -67 -62 -54 -87 18 -33 54 -24 111 28 42 39 50 52
45 70 -11 32 -52 27 -102 -11z m76 -2 c0 -12 -78 -75 -92 -75 -27 0 -21 16 15
41 17 13 35 29 40 36 6 10 37 8 37 -2z"/>
<path d="M507 293 c-4 -3 0 -17 8 -29 14 -21 13 -24 -7 -39 -29 -19 -72 -19
-102 1 -30 19 -43 3 -17 -20 32 -29 85 -31 127 -7 35 21 39 21 76 7 51 -21 91
-20 119 3 28 22 20 38 -9 22 -40 -22 -139 -3 -128 23 19 47 20 46 -21 46 -22
0 -43 -3 -46 -7z"/>
</g>
</svg>
